<?xml version="1.0" standalone="no"?>
<!DOCTYPE svg PUBLIC "-//W3C//DTD SVG 20010904//EN"
 "http://www.w3.org/TR/2001/REC-SVG-20010904/DTD/svg10.dtd">
<svg version="1.0" xmlns="http://www.w3.org/2000/svg"
 width="1060.000000pt" height="1060.000000pt" viewBox="0 0 1060.000000 1060.000000"
 preserveAspectRatio="xMidYMid meet">
<metadata>
Created by potrace 1.14, written by Peter Selinger 2001-2017
</metadata>
<g transform="translate(0.000000,1060.000000) scale(0.100000,-0.100000)"
fill="#000000" stroke="none">
<path d="M5028 10595 c-2 -1 -55 -6 -118 -9 -63 -4 -124 -9 -135 -11 -11 -3
-49 -7 -85 -10 -36 -3 -90 -10 -120 -15 -30 -5 -75 -12 -100 -15 -25 -3 -52
-8 -60 -10 -8 -2 -33 -7 -55 -10 -49 -7 -55 -8 -175 -35 -52 -12 -106 -23
-120 -26 -45 -8 -254 -65 -292 -80 -20 -7 -47 -15 -60 -18 -23 -4 -264 -88
-303 -105 -11 -5 -51 -21 -90 -37 -38 -15 -98 -40 -133 -56 -34 -15 -65 -28
-68 -28 -11 0 -345 -171 -441 -226 -113 -64 -126 -73 -288 -180 -66 -43 -124
-81 -129 -83 -5 -2 -16 -10 -25 -17 -9 -7 -68 -52 -131 -100 -117 -89 -254
-202 -345 -284 -78 -70 -355 -348 -413 -415 -29 -33 -68 -78 -88 -100 -171
-193 -450 -599 -595 -864 -49 -89 -166 -323 -168 -336 -1 -5 -8 -19 -15 -30
-7 -11 -33 -69 -58 -130 -41 -98 -66 -164 -136 -355 -63 -174 -165 -567 -198
-765 -2 -16 -9 -55 -14 -85 -5 -30 -12 -77 -16 -105 -3 -27 -8 -57 -9 -65 -2
-9 -6 -43 -10 -75 -3 -33 -8 -73 -10 -90 -20 -158 -27 -682 -12 -895 9 -129
17 -217 23 -250 2 -14 7 -47 10 -75 3 -27 14 -104 25 -170 22 -133 23 -137 39
-215 7 -30 16 -74 21 -97 39 -191 159 -574 253 -805 186 -460 462 -935 753
-1298 156 -195 236 -284 428 -475 162 -162 236 -230 355 -327 36 -29 67 -55
70 -58 3 -3 50 -39 105 -80 55 -41 102 -77 105 -81 8 -8 308 -209 314 -209 2
0 40 -22 83 -48 249 -154 607 -322 928 -437 280 -99 664 -199 885 -230 25 -3
52 -8 60 -10 18 -5 232 -32 315 -40 33 -3 98 -9 145 -14 90 -8 728 -7 770 2
14 3 61 8 105 11 44 4 90 8 102 10 12 3 48 7 80 11 32 3 69 7 83 10 14 3 41 7
60 10 31 5 118 20 175 30 88 15 325 72 440 106 77 22 145 42 150 43 6 2 17 5
25 9 8 3 65 22 125 42 273 92 606 243 890 405 249 142 551 355 797 562 144
121 402 372 518 504 47 54 90 102 95 108 49 53 264 337 338 446 353 521 608
1091 758 1691 37 150 36 147 54 234 20 102 24 125 31 175 3 25 8 47 9 50 2 3
7 33 11 65 4 33 8 67 9 75 1 8 5 47 9 85 4 39 9 80 11 93 13 80 20 275 20 522
-1 283 -8 437 -30 605 -2 17 -7 53 -10 80 -13 107 -45 288 -74 428 -64 303
-203 736 -315 979 -14 31 -26 59 -26 62 0 13 -173 352 -240 471 -144 255 -379
586 -580 819 -175 203 -462 484 -645 632 -38 31 -81 66 -95 78 -49 42 -247
184 -365 262 -306 202 -619 365 -970 506 -67 27 -236 88 -255 93 -8 2 -35 10
-60 18 -220 75 -558 156 -805 193 -55 8 -111 16 -125 19 -14 2 -77 9 -140 15
-63 6 -133 13 -155 16 -42 6 -671 14 -677 9z"/>
</g>
</svg>
